<svg width="34" height="34" viewBox="0 0 34 34" fill="none" xmlns="http://www.w3.org/2000/svg">
<path d="M24.3333 20.0417C24 19.875 21.8333 18.875 21.5 18.7083C21.1667 18.5417 20.8333 18.5417 20.5 18.875C20.1667 19.2083 19.5 20.2083 19.1667 20.5417C19 20.875 18.6667 20.875 18.3333 20.7083C17.1667 20.2083 16 19.5417 15 18.7083C14.1667 17.875 13.3333 16.875 12.6667 15.875C12.5 15.5417 12.6667 15.2083 12.8333 15.0417C13 14.875 13.1667 14.5417 13.5 14.375C13.6667 14.2083 13.8333 13.875 13.8333 13.7083C14 13.5417 14 13.2083 13.8333 13.0417C13.6667 12.875 12.8333 10.875 12.5 10.0417C12.3333 8.875 12 8.875 11.6667 8.875H10.8333C10.5 8.875 10 9.20833 9.83333 9.375C8.83333 10.375 8.33333 11.5417 8.33333 12.875C8.5 14.375 9 15.875 10 17.2083C11.8333 19.875 14.1667 22.0417 17 23.375C17.8333 23.7083 18.5 24.0417 19.3333 24.2083C20.1667 24.5417 21 24.5417 22 24.375C23.1667 24.2083 24.1667 23.375 24.8333 22.375C25.1667 21.7083 25.1667 21.0417 25 20.375L24.3333 20.0417ZM28.5 4.875C22 -1.625 11.5 -1.625 5 4.875C-0.333333 10.2083 -1.33333 18.375 2.33333 24.875L0 33.375L8.83333 31.0417C11.3333 32.375 14 33.0417 16.6667 33.0417C25.8333 33.0417 33.1667 25.7083 33.1667 16.5417C33.3333 12.2083 31.5 8.04167 28.5 4.875ZM24 28.2083C21.8333 29.5417 19.3333 30.375 16.6667 30.375C14.1667 30.375 11.8333 29.7083 9.66667 28.5417L9.16667 28.2083L4 29.5417L5.33333 24.5417L5 24.0417C1 17.375 3 9.04167 9.5 4.875C16 0.708333 24.3333 2.875 28.3333 9.20833C32.3333 15.7083 30.5 24.2083 24 28.2083Z" fill="#FDFDFD"/>
</svg>
